<svg xmlns="http://www.w3.org/2000/svg" viewBox="0 0 128 128">
  <!-- Background -->
  <rect width="128" height="128" rx="20" fill="#2C2C32"/>
  
  <!-- Python Logo (Simplified) -->
  <path d="M64 20c-15 0-14 6.5-14 6.5v6.5h14.5v2h-20c-10 0-9 15-9 15s-1.5 15 9 15h6v-7s-.5-8 8-8h14s7.5 0 7.5-7.5v-13C80 22 77.5 20 64 20zm-8 4c1.5 0 2.5 1 2.5 2.5s-1 2.5-2.5 2.5-2.5-1-2.5-2.5 1-2.5 2.5-2.5z" fill="#3776AB"/>
  <path d="M64 108c15 0 14-6.5 14-6.5v-6.5H63.5v-2h20c10 0 9-15 9-15s1.5-15-9-15h-6v7s.5 8-8 8h-14s-7.5 0-7.5 7.5v13c0 7.5 2.5 9.5 16 9.5zm8-4c-1.5 0-2.5-1-2.5-2.5s1-2.5 2.5-2.5 2.5 1 2.5 2.5-1 2.5-2.5 2.5z" fill="#FFD43B"/>
  
  <!-- Download Arrow -->
  <path d="M95 50l-8 8h6v25h4V58h6l-8-8z" fill="#4CAF50"/>
  
  <!-- Package Box -->
  <path d="M95 90H85V80h-4v10H71v4h10v10h4v-10h10v-4z" fill="#4CAF50"/>
</svg>